<?xml version="1.0" encoding="utf-8"?>
<svg xmlns="http://www.w3.org/2000/svg" xmlns:xlink="http://www.w3.org/1999/xlink" style="margin: auto; background-image: none; display: block; shape-rendering: auto; background-position: initial initial; background-repeat: initial initial;" width="200px" height="200px" viewBox="0 0 100 100" preserveAspectRatio="xMidYMid">
<g transform="rotate(0 50 50)">
  <rect x="49.5" y="32" rx="0.5" ry="5" width="1" height="10" fill="#fe718d">
    <animate attributeName="opacity" values="1;0" keyTimes="0;1" dur="2s" begin="-1.9393939393939394s" repeatCount="indefinite"></animate>
  </rect>
</g><g transform="rotate(10.909090909090908 50 50)">
  <rect x="49.5" y="32" rx="0.5" ry="5" width="1" height="10" fill="#f47e60">
    <animate attributeName="opacity" values="1;0" keyTimes="0;1" dur="2s" begin="-1.878787878787879s" repeatCount="indefinite"></animate>
  </rect>
</g><g transform="rotate(21.818181818181817 50 50)">
  <rect x="49.5" y="32" rx="0.5" ry="5" width="1" height="10" fill="#f8b26a">
    <animate attributeName="opacity" values="1;0" keyTimes="0;1" dur="2s" begin="-1.8181818181818181s" repeatCount="indefinite"></animate>
  </rect>
</g><g transform="rotate(32.72727272727273 50 50)">
  <rect x="49.5" y="32" rx="0.5" ry="5" width="1" height="10" fill="#abbd81">
    <animate attributeName="opacity" values="1;0" keyTimes="0;1" dur="2s" begin="-1.7575757575757576s" repeatCount="indefinite"></animate>
  </rect>
</g><g transform="rotate(43.63636363636363 50 50)">
  <rect x="49.5" y="32" rx="0.5" ry="5" width="1" height="10" fill="#849b87">
    <animate attributeName="opacity" values="1;0" keyTimes="0;1" dur="2s" begin="-1.696969696969697s" repeatCount="indefinite"></animate>
  </rect>
</g><g transform="rotate(54.54545454545455 50 50)">
  <rect x="49.5" y="32" rx="0.5" ry="5" width="1" height="10" fill="#6492ac">
    <animate attributeName="opacity" values="1;0" keyTimes="0;1" dur="2s" begin="-1.6363636363636365s" repeatCount="indefinite"></animate>
  </rect>
</g><g transform="rotate(65.45454545454545 50 50)">
  <rect x="49.5" y="32" rx="0.5" ry="5" width="1" height="10" fill="#637cb5">
    <animate attributeName="opacity" values="1;0" keyTimes="0;1" dur="2s" begin="-1.5757575757575757s" repeatCount="indefinite"></animate>
  </rect>
</g><g transform="rotate(76.36363636363636 50 50)">
  <rect x="49.5" y="32" rx="0.5" ry="5" width="1" height="10" fill="#6a63b6">
    <animate attributeName="opacity" values="1;0" keyTimes="0;1" dur="2s" begin="-1.5151515151515151s" repeatCount="indefinite"></animate>
  </rect>
</g><g transform="rotate(87.27272727272727 50 50)">
  <rect x="49.5" y="32" rx="0.5" ry="5" width="1" height="10" fill="#fe718d">
    <animate attributeName="opacity" values="1;0" keyTimes="0;1" dur="2s" begin="-1.4545454545454546s" repeatCount="indefinite"></animate>
  </rect>
</g><g transform="rotate(98.18181818181819 50 50)">
  <rect x="49.5" y="32" rx="0.5" ry="5" width="1" height="10" fill="#f47e60">
    <animate attributeName="opacity" values="1;0" keyTimes="0;1" dur="2s" begin="-1.393939393939394s" repeatCount="indefinite"></animate>
  </rect>
</g><g transform="rotate(109.0909090909091 50 50)">
  <rect x="49.5" y="32" rx="0.5" ry="5" width="1" height="10" fill="#f8b26a">
    <animate attributeName="opacity" values="1;0" keyTimes="0;1" dur="2s" begin="-1.3333333333333333s" repeatCount="indefinite"></animate>
  </rect>
</g><g transform="rotate(120 50 50)">
  <rect x="49.5" y="32" rx="0.5" ry="5" width="1" height="10" fill="#abbd81">
    <animate attributeName="opacity" values="1;0" keyTimes="0;1" dur="2s" begin="-1.2727272727272727s" repeatCount="indefinite"></animate>
  </rect>
</g><g transform="rotate(130.9090909090909 50 50)">
  <rect x="49.5" y="32" rx="0.5" ry="5" width="1" height="10" fill="#849b87">
    <animate attributeName="opacity" values="1;0" keyTimes="0;1" dur="2s" begin="-1.2121212121212122s" repeatCount="indefinite"></animate>
  </rect>
</g><g transform="rotate(141.8181818181818 50 50)">
  <rect x="49.5" y="32" rx="0.5" ry="5" width="1" height="10" fill="#6492ac">
    <animate attributeName="opacity" values="1;0" keyTimes="0;1" dur="2s" begin="-1.1515151515151516s" repeatCount="indefinite"></animate>
  </rect>
</g><g transform="rotate(152.72727272727272 50 50)">
  <rect x="49.5" y="32" rx="0.5" ry="5" width="1" height="10" fill="#637cb5">
    <animate attributeName="opacity" values="1;0" keyTimes="0;1" dur="2s" begin="-1.0909090909090908s" repeatCount="indefinite"></animate>
  </rect>
</g><g transform="rotate(163.63636363636363 50 50)">
  <rect x="49.5" y="32" rx="0.5" ry="5" width="1" height="10" fill="#6a63b6">
    <animate attributeName="opacity" values="1;0" keyTimes="0;1" dur="2s" begin="-1.0303030303030303s" repeatCount="indefinite"></animate>
  </rect>
</g><g transform="rotate(174.54545454545453 50 50)">
  <rect x="49.5" y="32" rx="0.5" ry="5" width="1" height="10" fill="#fe718d">
    <animate attributeName="opacity" values="1;0" keyTimes="0;1" dur="2s" begin="-0.9696969696969697s" repeatCount="indefinite"></animate>
  </rect>
</g><g transform="rotate(185.45454545454547 50 50)">
  <rect x="49.5" y="32" rx="0.5" ry="5" width="1" height="10" fill="#f47e60">
    <animate attributeName="opacity" values="1;0" keyTimes="0;1" dur="2s" begin="-0.9090909090909091s" repeatCount="indefinite"></animate>
  </rect>
</g><g transform="rotate(196.36363636363637 50 50)">
  <rect x="49.5" y="32" rx="0.5" ry="5" width="1" height="10" fill="#f8b26a">
    <animate attributeName="opacity" values="1;0" keyTimes="0;1" dur="2s" begin="-0.8484848484848485s" repeatCount="indefinite"></animate>
  </rect>
</g><g transform="rotate(207.27272727272728 50 50)">
  <rect x="49.5" y="32" rx="0.5" ry="5" width="1" height="10" fill="#abbd81">
    <animate attributeName="opacity" values="1;0" keyTimes="0;1" dur="2s" begin="-0.7878787878787878s" repeatCount="indefinite"></animate>
  </rect>
</g><g transform="rotate(218.1818181818182 50 50)">
  <rect x="49.5" y="32" rx="0.5" ry="5" width="1" height="10" fill="#849b87">
    <animate attributeName="opacity" values="1;0" keyTimes="0;1" dur="2s" begin="-0.7272727272727273s" repeatCount="indefinite"></animate>
  </rect>
</g><g transform="rotate(229.0909090909091 50 50)">
  <rect x="49.5" y="32" rx="0.5" ry="5" width="1" height="10" fill="#6492ac">
    <animate attributeName="opacity" values="1;0" keyTimes="0;1" dur="2s" begin="-0.6666666666666666s" repeatCount="indefinite"></animate>
  </rect>
</g><g transform="rotate(240 50 50)">
  <rect x="49.5" y="32" rx="0.5" ry="5" width="1" height="10" fill="#637cb5">
    <animate attributeName="opacity" values="1;0" keyTimes="0;1" dur="2s" begin="-0.6060606060606061s" repeatCount="indefinite"></animate>
  </rect>
</g><g transform="rotate(250.9090909090909 50 50)">
  <rect x="49.5" y="32" rx="0.5" ry="5" width="1" height="10" fill="#6a63b6">
    <animate attributeName="opacity" values="1;0" keyTimes="0;1" dur="2s" begin="-0.5454545454545454s" repeatCount="indefinite"></animate>
  </rect>
</g><g transform="rotate(261.8181818181818 50 50)">
  <rect x="49.5" y="32" rx="0.5" ry="5" width="1" height="10" fill="#fe718d">
    <animate attributeName="opacity" values="1;0" keyTimes="0;1" dur="2s" begin="-0.48484848484848486s" repeatCount="indefinite"></animate>
  </rect>
</g><g transform="rotate(272.72727272727275 50 50)">
  <rect x="49.5" y="32" rx="0.5" ry="5" width="1" height="10" fill="#f47e60">
    <animate attributeName="opacity" values="1;0" keyTimes="0;1" dur="2s" begin="-0.42424242424242425s" repeatCount="indefinite"></animate>
  </rect>
</g><g transform="rotate(283.6363636363636 50 50)">
  <rect x="49.5" y="32" rx="0.5" ry="5" width="1" height="10" fill="#f8b26a">
    <animate attributeName="opacity" values="1;0" keyTimes="0;1" dur="2s" begin="-0.36363636363636365s" repeatCount="indefinite"></animate>
  </rect>
</g><g transform="rotate(294.54545454545456 50 50)">
  <rect x="49.5" y="32" rx="0.5" ry="5" width="1" height="10" fill="#abbd81">
    <animate attributeName="opacity" values="1;0" keyTimes="0;1" dur="2s" begin="-0.30303030303030304s" repeatCount="indefinite"></animate>
  </rect>
</g><g transform="rotate(305.45454545454544 50 50)">
  <rect x="49.5" y="32" rx="0.5" ry="5" width="1" height="10" fill="#849b87">
    <animate attributeName="opacity" values="1;0" keyTimes="0;1" dur="2s" begin="-0.24242424242424243s" repeatCount="indefinite"></animate>
  </rect>
</g><g transform="rotate(316.3636363636364 50 50)">
  <rect x="49.5" y="32" rx="0.5" ry="5" width="1" height="10" fill="#6492ac">
    <animate attributeName="opacity" values="1;0" keyTimes="0;1" dur="2s" begin="-0.18181818181818182s" repeatCount="indefinite"></animate>
  </rect>
</g><g transform="rotate(327.27272727272725 50 50)">
  <rect x="49.5" y="32" rx="0.5" ry="5" width="1" height="10" fill="#637cb5">
    <animate attributeName="opacity" values="1;0" keyTimes="0;1" dur="2s" begin="-0.12121212121212122s" repeatCount="indefinite"></animate>
  </rect>
</g><g transform="rotate(338.1818181818182 50 50)">
  <rect x="49.5" y="32" rx="0.5" ry="5" width="1" height="10" fill="#6a63b6">
    <animate attributeName="opacity" values="1;0" keyTimes="0;1" dur="2s" begin="-0.06060606060606061s" repeatCount="indefinite"></animate>
  </rect>
</g><g transform="rotate(349.09090909090907 50 50)">
  <rect x="49.5" y="32" rx="0.5" ry="5" width="1" height="10" fill="#fe718d">
    <animate attributeName="opacity" values="1;0" keyTimes="0;1" dur="2s" begin="0s" repeatCount="indefinite"></animate>
  </rect>
</g>
<!-- [ldio] generated by https://loading.io/ --></svg>